<?xml version="1.0" standalone="no"?>
<!DOCTYPE svg PUBLIC "-//W3C//DTD SVG 20010904//EN"
 "http://www.w3.org/TR/2001/REC-SVG-20010904/DTD/svg10.dtd">
<svg version="1.0" xmlns="http://www.w3.org/2000/svg"
 width="1080.000000pt" height="1080.000000pt" viewBox="0 0 1080.000000 1080.000000"
 preserveAspectRatio="xMidYMid meet">
<metadata>
Created by potrace 1.11, written by Peter Selinger 2001-2013
</metadata>
<g transform="translate(0.000000,1080.000000) scale(0.100000,-0.100000)"
fill="#000000" stroke="none">
<path d="M1695 9386 c-22 -9 -50 -28 -62 -43 -47 -58 -120 -284 -138 -423 -3
-30 -9 -73 -13 -95 -9 -58 -8 -505 1 -610 8 -96 29 -272 42 -355 2 -14 7 -45
10 -70 3 -25 8 -52 10 -60 2 -8 7 -35 10 -60 4 -24 8 -47 10 -50 2 -3 6 -26
10 -50 3 -25 11 -65 16 -90 40 -178 58 -272 54 -283 -12 -29 -11 -126 1 -177
9 -40 21 -61 45 -81 33 -27 45 -60 140 -399 9 -31 6 -45 -34 -130 -71 -152
-126 -299 -168 -445 -22 -78 -74 -309 -83 -369 -4 -21 -8 -48 -11 -60 -8 -35
-15 -78 -21 -126 -3 -25 -7 -52 -9 -60 -4 -15 -16 -106 -19 -149 -1 -13 -12
-29 -25 -35 -32 -18 -61 -66 -61 -103 0 -22 10 -44 29 -66 22 -24 29 -41 26
-63 -28 -236 -21 -774 11 -887 3 -10 1 -24 -5 -30 -22 -27 -19 -87 5 -122 13
-19 32 -76 44 -132 47 -217 91 -340 152 -428 25 -35 138 -176 168 -210 19 -21
57 -64 85 -95 60 -66 289 -295 366 -365 134 -123 167 -150 282 -243 169 -135
269 -207 431 -306 144 -90 405 -222 576 -293 19 -8 44 -19 55 -24 227 -98 765
-257 1035 -305 14 -2 45 -9 70 -14 47 -10 151 -28 198 -35 15 -2 43 -6 62 -9
176 -30 422 -38 635 -22 61 4 112 9 115 11 3 2 28 6 55 9 57 8 69 10 185 30
762 134 1494 412 1985 754 80 56 334 253 390 303 171 152 251 227 379 355 67
67 210 220 256 274 12 14 29 34 38 45 37 43 110 142 136 183 36 57 89 220 119
365 14 65 33 127 42 137 26 28 33 71 20 115 -6 23 -10 50 -9 60 31 204 36 684
9 874 -4 27 1 41 25 68 17 18 30 45 30 59 0 42 -27 92 -59 109 -25 12 -31 22
-32 48 0 17 -2 39 -3 47 -2 8 -7 41 -10 74 -8 64 -8 64 -30 191 -18 102 -23
129 -30 165 -3 14 -10 46 -15 71 -31 146 -104 386 -159 514 -36 86 -89 205
-101 225 -4 9 -4 26 1 40 5 14 31 100 58 192 45 155 51 169 88 202 21 19 43
51 50 71 9 30 9 124 1 230 -1 11 1 29 4 40 7 28 55 254 61 290 9 51 16 89 21
115 2 13 7 42 10 65 3 22 8 47 10 55 2 8 7 40 11 70 3 30 7 64 9 75 32 224 40
349 40 595 0 295 -19 446 -80 628 -66 196 -94 224 -234 228 -95 3 -193 -12
-339 -51 -151 -41 -381 -120 -507 -174 -479 -206 -837 -395 -1109 -586 -73
-51 -114 -74 -126 -70 -10 3 -27 8 -37 10 -10 2 -49 11 -88 20 -86 19 -347 72
-395 80 -19 3 -61 10 -92 15 -133 23 -175 29 -218 35 -25 3 -56 8 -70 10 -14
2 -53 7 -87 10 -34 3 -70 7 -80 9 -20 4 -158 17 -238 22 -74 4 -403 4 -455 0
-25 -3 -81 -7 -125 -11 -44 -3 -91 -8 -105 -10 -14 -2 -52 -6 -85 -10 -68 -7
-94 -11 -220 -30 -49 -8 -110 -17 -135 -20 -25 -3 -52 -8 -60 -10 -8 -2 -31
-7 -50 -10 -19 -3 -66 -12 -105 -20 -73 -15 -110 -22 -160 -31 -16 -3 -84 -18
-150 -33 -136 -32 -122 -35 -240 48 -156 110 -451 281 -640 370 -33 16 -89 43
-125 61 -217 106 -645 276 -771 305 -9 2 -47 13 -85 24 -38 11 -87 23 -109 26
-22 3 -46 8 -54 11 -8 2 -60 7 -115 10 -75 3 -111 1 -141 -10z"/>
</g>
</svg>
