<svg xmlns="http://www.w3.org/2000/svg" viewBox="0 0 36 36"><path fill="#664500" d="M 32 6.13 C 30.81 7.571 28.818 8.081 26.924 8.251 C 26.606 6.713 25.241 1 22.5 1 C 20.097 1 19.231 2.091 18 2.091 C 16.769 2.091 15.903 1 13.5 1 C 10.759 1 9.394 6.713 9.076 8.251000000000001 C 7.182 8.081 5.19 7.57 4 6.13 C 1.847 3.524 -1 5.444 0.442 8.304 C 2.72 12.821 8.23 16 18 16 C 27.769 16 33.278999999999996 12.821 35.558 8.304 C 37 5.444 34.153 3.524 32 6.13 Z"></path><path fill="#825D0E" d="M21.5 3c-1.869 0-2.543.964-3.5.964-.957 0-1.631-.964-3.5-.964C12.037 3 11 9.75 11 9.75S12.282 12 18 12c5.719 0 7-2.25 7-2.25S23.963 3 21.5 3z"></path><path fill="#664500" d="M11 6s2.074 2 7 2c4.927 0 7-2 7-2v2s-2.222 2-7 2c-4.778 0-7-2-7-2V6z"></path></svg>