<svg xmlns="http://www.w3.org/2000/svg" viewBox="0 0 36 36"><path fill="#664500" d="M 7 12 C 6.448 12 6 11.552 6 11 S 6.448 10 7 10 C 12.083 10 12.996 6.88 13.033000000000001 6.747 C 13.178 6.218999999999999 13.725000000000001 5.899 14.252 6.038 C 14.782 6.1770000000000005 15.103000000000002 6.711 14.97 7.243 C 14.921 7.437 13.704 12 7 12 Z"></path><path fill="#664500" d="M 29 12 C 23.445999999999998 12 21.198 7.633 21.105 7.447 C 20.858 6.953 21.058 6.352 21.552 6.105 C 22.044999999999998 5.8580000000000005 22.644 6.057 22.892 6.548 C 22.967 6.694 24.713 10 29 10 C 29.553 10 30 10.448 30 11 S 29.553 12 29 12 Z"></path><ellipse fill="#664500" cx="12" cy="16.5" rx="2.5" ry="3.5"></ellipse><ellipse fill="#664500" cx="24" cy="16.5" rx="2.5" ry="3.5"></ellipse></svg>