<svg xmlns="http://www.w3.org/2000/svg" viewBox="0 0 36 36"><ellipse fill="#664500" cx="11.5" cy="16.5" rx="2.5" ry="3.5"></ellipse><path fill="#664500" d="M 29.000999999999998 14.583 C 28.695999999999998 14.583 28.397 14.445 28.2 14.183 C 25.608 10.725999999999999 21.238999999999997 11.556000000000001 21.195999999999998 11.562999999999999 C 20.648999999999997 11.671 20.127999999999997 11.319999999999999 20.019 10.778999999999998 C 19.910999999999998 10.236999999999998 20.261999999999997 9.710999999999999 20.802999999999997 9.601999999999999 C 21.034 9.554999999999998 26.459999999999997 8.529999999999998 29.799 12.982 C 30.131 13.424 30.041 14.050999999999998 29.599 14.382 C 29.42 14.519 29.21 14.583 29.001 14.583 Z"></path><path fill="#664500" d="M 5.999 12.458 C 5.7909999999999995 12.458 5.58 12.393 5.3999999999999995 12.258000000000001 C 4.957999999999999 11.927000000000001 4.869 11.3 5.199999999999999 10.858 C 8.462 6.508000000000001 12.815999999999999 6.458 13 6.458 C 13.552 6.458 14 6.906000000000001 14 7.458 C 14 8.009 13.555 8.456 13.004 8.458 C 12.847999999999999 8.46 9.434999999999999 8.544 6.7989999999999995 12.058 C 6.603999999999999 12.32 6.302999999999999 12.458 5.999 12.458 Z"></path><path fill="#664500" d="M 28.457 17.797 C 28.397000000000002 17.662 26.958000000000002 14.5 24 14.5 C 21.043 14.5 19.603 17.662 19.543 17.797 C 19.451 18.004 19.511 18.246000000000002 19.688 18.388 C 19.863 18.53 20.113999999999997 18.535 20.298 18.402 C 20.31 18.393 21.56 17.5 24 17.5 C 26.426000000000002 17.5 27.674 18.381 27.701999999999998 18.401 C 27.79 18.467 27.895999999999997 18.5 27.999999999999996 18.5 C 28.109999999999996 18.5 28.220999999999997 18.463 28.311999999999998 18.391 C 28.488999999999997 18.249 28.549999999999997 18.005 28.456999999999997 17.796999999999997 Z"></path></svg>