<svg xmlns="http://www.w3.org/2000/svg" viewBox="0 0 36 36"><path fill="#664500" d="M 22.517000000000003 7.6739999999999995 C 22.698000000000004 7.640999999999999 26.990000000000002 6.911 30.978 10.607 C 31.384 10.982 31.408 11.614999999999998 31.031000000000002 12.02 C 30.656000000000002 12.427 30.024 12.449 29.618000000000002 12.074 C 26.39 9.082 23.01 9.618 22.868000000000002 9.642 C 22.326 9.735 21.808000000000003 9.372 21.713 8.83 C 21.618000000000002 8.289 21.976000000000003 7.773 22.517 7.674 Z"></path><path fill="#664500" d="M 13.114 6.002 C 13.666 6.023 14.096 6.4879999999999995 14.075000000000001 7.04 C 14.053 7.59 13.591000000000001 8.019 13.041 8 C 12.885 7.996 9.471 7.948 6.702 11.357 C 6.354 11.783999999999999 5.725 11.850999999999999 5.295 11.501999999999999 C 4.866 11.153999999999998 4.801 10.524 5.15 10.094999999999999 C 8.578 5.875999999999999 12.93 5.994999999999999 13.114 6.001999999999999 Z"></path><path fill="#664500" d="M 28.811999999999998 17.887999999999998 C 28.636 18.031 28.386 18.035999999999998 28.201999999999998 17.901999999999997 C 28.189999999999998 17.891999999999996 26.941 16.999999999999996 24.5 16.999999999999996 C 22.06 16.999999999999996 20.81 17.892999999999997 20.8 17.899999999999995 C 20.617 18.036999999999995 20.366 18.032999999999994 20.189 17.890999999999995 C 20.011 17.748999999999995 19.951 17.504999999999995 20.043 17.296999999999993 C 20.102 17.161999999999992 21.543 13.999999999999993 24.5 13.999999999999993 C 27.458 13.999999999999993 28.898 17.161999999999992 28.957 17.296999999999993 C 29.049 17.503999999999994 28.989 17.745999999999995 28.812 17.887999999999995 Z"></path><path fill="#664500" d="M 15.812999999999999 17.887999999999998 C 15.636999999999999 18.031 15.386 18.034999999999997 15.203 17.901999999999997 C 15.19 17.891999999999996 13.942 16.999999999999996 11.5 16.999999999999996 C 9.059000000000001 16.999999999999996 7.8100000000000005 17.892999999999997 7.8 17.899999999999995 C 7.617 18.036999999999995 7.365 18.032999999999994 7.189 17.890999999999995 C 7.011 17.748999999999995 6.9510000000000005 17.504999999999995 7.043 17.296999999999993 C 7.103 17.161999999999992 8.543 13.999999999999993 11.5 13.999999999999993 C 14.458 13.999999999999993 15.897 17.161999999999992 15.957 17.296999999999993 C 16.049 17.503999999999994 15.989 17.745999999999995 15.813 17.887999999999995 Z"></path></svg>