<svg xmlns="http://www.w3.org/2000/svg" viewBox="0 0 36 36"><circle fill="#F4F7F9" cx="24.5" cy="13.5" r="5.5"></circle><circle fill="#F4F7F9" cx="11.5" cy="13.5" r="5.5"></circle><path fill="#65471B" d="M 23.5 13 C 24.881 13 26 11.881 26 10.5 C 26 9.248 25.076999999999998 8.22 23.876 8.038 C 23.087 8.127 22.35 8.386000000000001 21.699 8.774000000000001 C 21.268 9.223 21 9.829 21 10.5 C 21 11.881 22.119 13 23.5 13 Z"></path><path fill="#65471B" d="M 10.5 13 C 11.881 13 13 11.881 13 10.5 C 13 9.248 12.077 8.22 10.876 8.038 C 10.085999999999999 8.127 9.35 8.386000000000001 8.698 8.774000000000001 C 8.268 9.223 8 9.829 8 10.5 C 8 11.881 9.119 13 10.5 13 Z"></path></svg>