<svg xmlns="http://www.w3.org/2000/svg" viewBox="0 0 36 36"><circle fill="#F5F8FA" cx="24.5" cy="16.5" r="5.5"></circle><circle fill="#F5F8FA" cx="11.5" cy="16.5" r="5.5"></circle><circle fill="#664500" cx="11.5" cy="16.5" r="2.5"></circle><circle fill="#664500" cx="24.5" cy="16.5" r="2.5"></circle><path fill="#664500" d="M 5.999 11 C 5.7909999999999995 11 5.58 10.935 5.3999999999999995 10.8 C 4.957999999999999 10.469000000000001 4.869 9.842 5.199999999999999 9.4 C 8.462 5.05 12.816 5 13 5 C 13.552 5 14 5.448 14 6 C 14 6.551 13.555 6.998 13.004 7 C 12.849 7.002 9.436 7.086 6.8 10.6 C 6.604 10.862 6.303 11 5.999 11 Z"></path><path fill="#664500" d="M 30.000999999999998 11 C 29.695999999999998 11 29.397 10.862 29.2 10.6 C 26.56 7.079 23.139 7.002 22.994 7 C 22.444 6.994 22 6.544 22.003 5.995 C 22.006 5.444 22.45 5 23 5 C 23.184 5 27.537 5.05 30.8 9.4 C 31.132 9.842 31.042 10.469000000000001 30.6 10.8 C 30.42 10.935 30.21 11 30.001 11 Z"></path></svg>