<svg xmlns="http://www.w3.org/2000/svg" viewBox="0 0 36 36"><path fill="#664500" d="M7.999 15c-.15 0-.303-.034-.446-.106-.494-.247-.694-.848-.447-1.342C7.158 13.448 8.424 11 12 11c3.577 0 4.842 2.449 4.894 2.553.247.494.047 1.095-.447 1.342-.492.245-1.085.049-1.336-.436C15.068 14.379 14.281 13 12 13c-2.317 0-3.099 1.433-3.106 1.447-.175.351-.528.553-.895.553zm20.002 0c-.367 0-.72-.202-.896-.553C27.08 14.401 26.299 13 24 13s-3.08 1.401-3.112 1.46c-.26.481-.859.67-1.345.42-.485-.252-.682-.839-.438-1.328C19.157 13.449 20.423 11 24 11s4.843 2.449 4.895 2.553c.247.494.047 1.095-.447 1.342-.144.071-.297.105-.447.105z"></path></svg>