<svg xmlns="http://www.w3.org/2000/svg" viewBox="0 0 36 36"><path fill="#664500" d="M 26 18 C 25.581 18 25.191 17.735 25.052 17.316 C 24.849 16.717 24.033 15 23 15 C 21.938 15 21.111 16.826999999999998 20.948 17.316 C 20.773 17.839 20.212 18.124 19.683 17.948 C 19.16 17.774 18.876 17.207 19.051 16.683 C 19.177 16.307 20.355 13 23 13 S 26.823 16.307 26.948 16.684 C 27.123 17.208000000000002 26.84 17.775000000000002 26.316 17.949 C 26.211 17.983 26.104 18 26 18 Z"></path><path fill="#664500" d="M 16 18 C 15.581 18 15.191 17.735 15.051 17.316 C 14.848 16.717 14.034 15 13 15 C 11.938 15 11.112 16.826999999999998 10.949 17.316 C 10.774 17.839 10.211 18.124 9.684 17.948 C 9.16 17.774 8.876999999999999 17.207 9.052 16.683 C 9.177 16.307 10.356 13 13 13 S 16.823 16.307 16.948999999999998 16.684 C 17.124 17.208000000000002 16.840999999999998 17.775000000000002 16.316999999999997 17.949 C 16.210999999999995 17.983 16.103999999999996 18 15.999999999999996 18 Z"></path></svg>