<svg xmlns="http://www.w3.org/2000/svg" viewBox="0 0 36 36"><path fill="#664500" d="M 15.707 17.293 C 12.452 14.038 7.221 14 7 14 C 6.448 14 6.001 14.447 6.001 14.998 C 6 15.549999999999999 6.447 15.998 6.9990000000000006 16 C 7.025 16 8.557 16.016 10.360000000000001 16.536 C 10.139000000000001 16.797 10.000000000000002 17.131 10.000000000000002 17.5 C 10.000000000000002 17.623 10.019000000000002 17.741 10.047000000000002 17.856 C 7.331000000000002 18.774 5.514000000000002 20.114 5.400000000000002 20.200000000000003 C 4.958000000000002 20.531000000000002 4.869000000000002 21.158 5.200000000000002 21.599000000000004 C 5.396000000000002 21.862000000000005 5.697000000000002 22.000000000000004 6.001000000000002 22.000000000000004 C 6.209000000000002 22.000000000000004 6.420000000000002 21.935000000000002 6.600000000000002 21.800000000000004 C 6.637000000000002 21.772000000000006 10.387000000000002 19.000000000000004 15.000000000000004 19.000000000000004 C 15.404000000000003 19.000000000000004 15.769000000000004 18.757000000000005 15.924000000000003 18.383000000000003 C 16.079000000000004 18.009000000000004 15.993000000000004 17.579000000000004 15.707000000000003 17.293000000000003 Z"></path><path fill="#664500" d="M 30.6 20.2 C 30.486 20.114 28.669 18.774 25.954 17.855999999999998 C 25.98 17.741 26 17.622999999999998 26 17.499999999999996 C 26 17.130999999999997 25.861 16.796999999999997 25.641 16.535999999999998 C 27.442999999999998 16.016 28.974999999999998 15.999999999999998 29.002 15.999999999999998 C 29.552999999999997 15.997999999999998 30 15.549999999999999 29.999 14.997999999999998 C 29.997999999999998 14.446999999999997 29.552 13.999999999999998 29 13.999999999999998 C 28.779 13.999999999999998 23.549 14.037999999999998 20.293 17.293 C 20.006999999999998 17.579 19.921 18.009 20.076 18.383 C 20.23 18.756999999999998 20.596 19 21 19 C 25.59 19 29.363 21.772 29.401 21.801000000000002 C 29.581 21.935000000000002 29.791 21.999000000000002 29.999 21.999000000000002 C 30.304 21.999000000000002 30.604 21.860000000000003 30.801 21.599000000000004 C 31.130999999999997 21.156000000000002 31.040999999999997 20.531000000000002 30.599999999999998 20.200000000000003 Z"></path><path fill="#664500" d="M 30 13 C 29.816 13 25.463 12.95 22.2 8.6 C 21.868 8.158 21.958 7.531 22.4 7.199999999999999 C 22.840999999999998 6.866999999999999 23.467 6.957999999999999 23.799 7.3999999999999995 C 26.439999999999998 10.921 29.86 10.998999999999999 30.005 11 C 30.555 11.006 30.999 11.456 30.996 12.004999999999999 C 30.994 12.556 30.549999999999997 12.999999999999998 30 12.999999999999998 Z"></path><path fill="#664500" d="M 6 13 C 5.448 13 5 12.552 5 12 C 5 11.449 5.445 11.002 5.996 11 C 6.152 10.998 9.565000000000001 10.914 12.201 7.4 C 12.532 6.96 13.158000000000001 6.868 13.601 7.2 C 14.043000000000001 7.531000000000001 14.132000000000001 8.158 13.801 8.6 C 10.538 12.95 6.184 13 6 13 Z"></path></svg>