<svg xmlns="http://www.w3.org/2000/svg" viewBox="0 0 36 36"><ellipse fill="#664500" cx="12" cy="16.5" rx="2.5" ry="2.75"></ellipse><ellipse fill="#664500" cx="24" cy="16.5" rx="2.5" ry="3.5"></ellipse><path fill="#664500" d="M 30.001 10.408 C 29.633000000000003 10.408 29.27 10.247 29.022000000000002 9.937 C 27.627000000000002 8.186 24.723000000000003 6.6499999999999995 23.708000000000002 6.6499999999999995 C 23.066000000000003 6.6499999999999995 21.783 7.561 21.104000000000003 8.218 C 20.608000000000004 8.7 19.816000000000003 8.685 19.337000000000003 8.19 C 18.857000000000003 7.694999999999999 18.868000000000002 6.904999999999999 19.361000000000004 6.4239999999999995 C 19.752000000000002 6.044 21.797000000000004 4.148999999999999 23.708000000000006 4.148999999999999 C 25.713000000000005 4.148999999999999 29.246000000000006 6.204999999999999 30.978000000000005 8.378 C 31.409000000000006 8.918 31.319000000000006 9.704 30.780000000000005 10.134 C 30.549000000000003 10.319 30.273000000000003 10.408000000000001 30.001000000000005 10.408000000000001 Z"></path><path fill="#664500" d="M 7.102 12.559 C 7.351 12.735 7.676 12.795 7.987 12.693999999999999 C 12.174 11.338999999999999 15.014 13.248 15.133 13.329999999999998 C 15.585999999999999 13.641999999999998 16.208 13.530999999999999 16.523 13.079999999999998 C 16.838 12.628999999999998 16.730999999999998 12.008999999999999 16.282 11.691999999999998 C 16.132 11.585999999999999 12.546 9.116999999999997 7.372 10.790999999999999 C 6.846 10.960999999999999 6.558 11.524999999999999 6.729 12.049999999999999 C 6.797 12.264 6.932 12.437999999999999 7.102 12.559 Z"></path></svg>