<svg xmlns="http://www.w3.org/2000/svg" viewBox="0 0 36 36"><path fill="#65471B" d="M6.001 11c-.552 0-1-.448-1-1 0-.551.445-.998.996-1 .156-.002 3.569-.086 6.205-3.6.331-.44.957-.532 1.4-.2.442.331.531.958.2 1.4-3.263 4.35-7.617 4.4-7.801 4.4zm24.986 2.393c.128.537-.204 1.077-.741 1.205-.536.128-1.074-.202-1.204-.737-.038-.151-.911-3.452-4.941-5.201-.505-.22-.739-.808-.519-1.315.22-.507.809-.739 1.315-.519 4.989 2.165 6.047 6.388 6.09 6.567z"></path><path fill="#65471B" d="M14.815 15.375c-.584 2.114-1.642 3.083-3.152 2.666-1.509-.417-2.343-1.909-1.76-4.023.583-2.112 2.175-3.363 3.684-2.946 1.511.417 1.812 2.19 1.228 4.303zm11.416-.755c.473 2.141-.675 4.838-2.204 5.176s-3.28-1.719-3.753-3.86c-.473-2.14.419-3.971 1.948-4.309s3.536.853 4.009 2.993z"></path></svg>