<svg xmlns="http://www.w3.org/2000/svg" viewBox="0 0 36 36"><path fill="#664500" d="M 16 16 C 16 15.448 15.552 15 15 15 H 8 C 7.448 15 7 15.448 7 16 S 7.448 17 8 17 H 13.091999999999999 C 13.299 17.581 13.847999999999999 18 14.499999999999998 18 C 15.327999999999998 18 15.999999999999998 17.329 15.999999999999998 16.5 C 15.999999999999998 16.39 15.985999999999999 16.283 15.963999999999999 16.179 C 15.974999999999998 16.119 15.999999999999998 16.063 15.999999999999998 15.999999999999998 Z"></path><path fill="#664500" d="M 29 16 C 29 15.448 28.553 15 28 15 H 21 C 20.447 15 20 15.448 20 16 S 20.447 17 21 17 H 26.092 C 26.299 17.581 26.848 18 27.5 18 C 28.328 18 29 17.329 29 16.5 C 29 16.39 28.986 16.283 28.964 16.179 C 28.976 16.119 29 16.063 29 15.999999999999998 Z"></path><path fill="#664500" d="M 6.999 14 C 6.7909999999999995 14 6.58 13.935 6.3999999999999995 13.8 C 5.957999999999999 13.469000000000001 5.869 12.842 6.199999999999999 12.4 C 9.001 8.666 13.517 9.944 15.514 11.143 C 15.988 11.427000000000001 16.141 12.041 15.857 12.515 C 15.572999999999999 12.988000000000001 14.960999999999999 13.143 14.486999999999998 12.859 C 14.307999999999998 12.753 10.212999999999997 10.384 7.798999999999999 13.600999999999999 C 7.603999999999998 13.861999999999998 7.302999999999999 14 6.998999999999999 14 Z"></path><path fill="#664500" d="M 29.001 14 C 28.696 14 28.397000000000002 13.862 28.200000000000003 13.6 C 25.768000000000004 10.356 21.686000000000003 12.754 21.514000000000003 12.857 C 21.039 13.142 20.425000000000004 12.987 20.142000000000003 12.514 C 19.858000000000004 12.04 20.011000000000003 11.425999999999998 20.485000000000003 11.142 C 22.483000000000004 9.943 26.999000000000002 8.665 29.799000000000003 12.399 C 30.131000000000004 12.841 30.041000000000004 13.468 29.599000000000004 13.799 C 29.420000000000005 13.934999999999999 29.210000000000004 14 29.001000000000005 14 Z"></path></svg>