<svg xmlns="http://www.w3.org/2000/svg" viewBox="0 0 36 36"><path fill="#FFCC4D" d="M35.625 14.338L23.135.753C21.507.269 19.786 0 18 0c-2.369 0-4.625.47-6.697 1.301l-9.955 9.875C.484 13.282 0 15.583 0 18c0 9.941 8.06 18 18 18 9.941 0 18-8.059 18-18 0-1.255-.13-2.48-.375-3.662z"></path><path fill="#E6E7E8" d="M34.979 12.068c-.136-.389-.271-.779-.432-1.155-.357-.831-.787-1.621-1.259-2.382-.262-.422-.54-.83-.835-1.228-.402-.542-.831-1.06-1.29-1.553-.293-.315-.596-.618-.911-.911l-.123-.112c-.647-.592-1.324-1.151-2.053-1.645-.439-.297-.895-.57-1.361-.828-1.125-.624-2.323-1.128-3.579-1.501l-7.421 1.351-4.41-.803c-1.08.434-2.107.968-3.072 1.593-.373.242-.731.501-1.083.769l-.12.089C6.32 4.3 5.649 4.894 5.029 5.54c-.247.257-.488.52-.72.792-.039.045-.082.086-.12.132-.301.36-.58.738-.852 1.121-.182.255-.355.516-.524.781-.335.527-.64 1.072-.92 1.634-.192.386-.381.774-.545 1.176L9.8 9.638l25.825 4.7c-.161-.779-.388-1.532-.646-2.27z"></path><path fill="#BCBEC0" d="M34.546 10.912L18.671 8.023l5.914-1.076 2.956-.538 3.621-.659c-.293-.315-.596-.618-.911-.911l-5.668 1.032-2.956.538-5.914 1.076-2.957.538-5.913 1.076-4.95.901c-.192.386-.381.774-.545 1.176L9.8 9.638l5.914-1.076 19.265 3.506c-.136-.39-.271-.779-.433-1.156z"></path><path fill="#D1D3D4" d="M 26.715 2.254 L 21.628 3.18 L 15.714 4.256 L 12.758000000000001 4.7940000000000005 L 6.844000000000001 5.871 L 4.309000000000001 6.332000000000001 C 4.270000000000001 6.377000000000001 4.227000000000001 6.418000000000001 4.189000000000001 6.464 C 3.888000000000001 6.824000000000001 3.609000000000001 7.202 3.337000000000001 7.585000000000001 L 6.8420000000000005 6.947000000000001 L 9.8 6.409 L 15.714 5.333 L 18.67 4.795 L 24.584000000000003 3.719 L 28.076000000000004 3.0839999999999996 C 27.636000000000003 2.7859999999999996 27.180000000000003 2.513 26.715000000000003 2.2539999999999996 Z"></path><path fill="#D1D3D4" d="M 8.232 2.895 C 7.859999999999999 3.136 7.501999999999999 3.395 7.1499999999999995 3.6630000000000003 L 9.8 3.18 L 8.232000000000001 2.895 Z"></path><path fill="#D1D3D4" d="M 27.541 6.409 L 32.453 7.303 C 32.748000000000005 7.7 33.026 8.109 33.288000000000004 8.531 L 24.586000000000006 6.947000000000001 L 27.541000000000004 6.409000000000001 Z"></path><path fill="#D1D3D4" d="M27.541 6.409l4.912.894c.295.397.573.806.835 1.228l-8.702-1.584 2.955-.538zM8.232 2.895c-.372.241-.73.5-1.082.768L9.8 3.18l-1.568-.285zm18.483-.641l-5.087.926-5.914 1.076-2.956.538-5.914 1.077-2.535.461c-.039.045-.082.086-.12.132-.301.36-.58.738-.852 1.121l3.505-.638L9.8 6.409l5.914-1.076 2.956-.538 5.914-1.076 3.492-.635c-.44-.298-.896-.571-1.361-.83z"></path></svg>