<svg xmlns="http://www.w3.org/2000/svg" viewBox="0 0 36 36"><path fill="#664500" d="M 18 30 C 17.696 30 17.409 29.862 17.219 29.625 L 14.025000000000002 25.633 L 11.8 28.6 C 11.626000000000001 28.832 11.360000000000001 28.977 11.071000000000002 28.997 C 10.781000000000002 29.018 10.497000000000002 28.912 10.293000000000001 28.707 L 9.293000000000001 27.707 C 8.902000000000001 27.316000000000003 8.902000000000001 26.684 9.293000000000001 26.293 S 10.316 25.902 10.707 26.293 L 10.892000000000001 26.477999999999998 L 13.2 23.4 C 13.386 23.151999999999997 13.674999999999999 23.003999999999998 13.984 23 C 14.279 22.99 14.587 23.133 14.78 23.375 L 18 27.399 L 21.219 23.375 C 21.412000000000003 23.134 21.703000000000003 23 22.016000000000002 23 C 22.326 23.005 22.615000000000002 23.152 22.8 23.4 L 25.109 26.476999999999997 L 25.294 26.291999999999998 C 25.685000000000002 25.900999999999996 26.317 25.900999999999996 26.708000000000002 26.291999999999998 S 27.099000000000004 27.314999999999998 26.708000000000002 27.706 L 25.708000000000002 28.706 C 25.503000000000004 28.910999999999998 25.229000000000003 29.02 24.930000000000003 28.996 C 24.641000000000002 28.974999999999998 24.375000000000004 28.831 24.201000000000004 28.599 L 21.975000000000005 25.632 L 18.782000000000004 29.624000000000002 C 18.591000000000005 29.862000000000002 18.304000000000002 30.000000000000004 18.000000000000004 30.000000000000004 Z"></path></svg>