<svg xmlns="http://www.w3.org/2000/svg" viewBox="0 0 36 36"><path fill="#664500" d="M27.335 23.629c-.178-.161-.444-.171-.635-.029-.039.029-3.922 2.9-8.7 2.9-4.766 0-8.662-2.871-8.7-2.9-.191-.142-.457-.13-.635.029-.177.16-.217.424-.094.628C8.7 24.472 11.788 29.5 18 29.5s9.301-5.028 9.429-5.243c.123-.205.084-.468-.094-.628z"></path><path fill="#65471B" d="M18 26.591c-.148 0-.291-.011-.438-.016v4.516h.875v-4.517c-.145.005-.289.017-.437.017z"></path><path fill="#FFF" d="M 14 26 C 13.984 25.996 15.45 26.378 16.446 26.486 C 16.812 26.528000000000002 17.183 26.562 17.563000000000002 26.575 V 31.092 H 16 C 14.9 31.092 14 30.192 14 29.092 V 26 Z"></path><path fill="#FFF" d="M 22 26 C 22.016 25.996 20.55 26.378 19.554 26.486 C 19.188 26.528000000000002 18.817 26.562 18.436999999999998 26.575 V 31.092 H 20 C 21.1 31.092 22 30.192 22 29.092 V 26 Z"></path><path fill="#65471B" d="M 27.335 23.629 C 27.157 23.468 26.891000000000002 23.458000000000002 26.7 23.6 C 26.669999999999998 23.622 24.441 25.268 21.289 26.07 C 20.846 26.183 19.425 26.5 18.003 26.501 C 16.579 26.501 15.154 26.183 14.711 26.07 C 11.559000000000001 25.268 9.33 23.622 9.3 23.6 C 9.110000000000001 23.458000000000002 8.843 23.468 8.665000000000001 23.629 C 8.487 23.789 8.448 24.052 8.571000000000002 24.257 C 8.668000000000001 24.419 10.456000000000001 27.324 14.000000000000002 28.738 V 26.909 C 13.984000000000002 26.904999999999998 15.450000000000001 27.287 16.446 27.395 C 16.812 27.437 17.183 27.471 17.563000000000002 27.483999999999998 C 17.709000000000003 27.488999999999997 17.852000000000004 27.499999999999996 18.000000000000004 27.499999999999996 C 18.148000000000003 27.499999999999996 18.291000000000004 27.488999999999997 18.438000000000002 27.483999999999998 C 18.818 27.470999999999997 19.189000000000004 27.438 19.555000000000003 27.395 C 20.551000000000002 27.287 22.017000000000003 26.905 22.001000000000005 26.909 V 28.738 C 25.545000000000005 27.323999999999998 27.333000000000006 24.419 27.430000000000007 24.256999999999998 C 27.552000000000007 24.052 27.513000000000005 23.788999999999998 27.335000000000008 23.628999999999998 Z"></path></svg>