<svg xmlns="http://www.w3.org/2000/svg" viewBox="0 0 36 36"><path fill="#664500" d="M27.335 23.629c-.178-.161-.444-.171-.635-.029-.039.029-3.922 2.9-8.7 2.9-4.766 0-8.662-2.871-8.7-2.9-.191-.142-.457-.13-.635.029-.177.16-.217.424-.094.628C8.7 24.472 11.788 29.5 18 29.5s9.301-5.028 9.429-5.243c.123-.205.084-.468-.094-.628z"></path><path fill="#65471B" d="M7 21.262c0 3.964 4.596 9 11 9s11-5 11-9c0 0-10.333 2.756-22 0z"></path><path fill="#E8596E" d="M18.545 23.604l-1.091-.005c-3.216-.074-5.454-.596-5.454-.596v6.961c0 3 2 6 6 6s6-3 6-6v-6.92c-1.922.394-3.787.542-5.455.56z"></path><path fill="#DD2F45" d="M18 31.843c.301 0 .545-.244.545-.545v-7.694l-1.091-.005v7.699c.001.301.245.545.546.545z"></path></svg>