<svg xmlns="http://www.w3.org/2000/svg" viewBox="0 0 36 36"><path fill="#664500" d="M 18 22 C 14.376999999999999 22 11.972999999999999 21.578 9 21 C 8.321 20.869 7 21 7 23 C 7 27 11.594999999999999 32 18 32 C 24.404 32 29 27 29 23 C 29 21 27.679 20.868 27 21 C 24.027 21.578 21.623 22 18 22 Z"></path><path fill="#FFF" d="M9 23s3 1 9 1 9-1 9-1-1.344 6.75-9 6.75S9 23 9 23z"></path><path fill="#664500" d="M18 27.594c-3.596 0-6.272-.372-7.937-.745l-.825-1.871c.823.312 3.889.897 8.763.897 4.954 0 8.037-.616 8.864-.938l-.701 1.842c-1.634.38-4.419.815-8.164.815z"></path></svg>