<svg xmlns="http://www.w3.org/2000/svg" viewBox="0 0 36 36"><path fill="#FFAC33" d="M32.093 29.177c-.218-.631-.559-1.217-1.044-1.702l-3.671-3.789c-.814 1.885-2.858 5.337-7.189 6.795l3.685 3.685c.214.214.453.406.709.573 2.973-1.169 5.556-3.1 7.51-5.562z"></path><path fill="#664500" d="M 29.503 23.52 C 29.826 22.771 29.964 22.262999999999998 29.969 22.243 C 30.103 21.709 29.779 21.168 29.244 21.032999999999998 C 28.708 20.897 28.167 21.220999999999997 28.029 21.755999999999997 C 27.955 22.051 26.081 29 18 29 S 8.045 22.051000000000002 7.970000000000001 21.755 C 7.832000000000001 21.221 7.291 20.897 6.755000000000001 21.032 C 6.221000000000001 21.167 5.897000000000001 21.708 6.030000000000001 22.242 C 6.052 22.33 8.331 31 18 31 C 19.65 31 21.07 30.734 22.315 30.315 C 26.645000000000003 28.857000000000003 28.689 25.405 29.503 23.520000000000003 Z"></path><path fill="#E75A70" d="M33.175 27.309l-3.671-3.789c-.814 1.885-2.858 5.337-7.189 6.795L26 34c1.728 1.728 5 2 7 0s1.903-4.962.175-6.691z"></path></svg>